<?xml version="1.0" standalone="no"?>
<!DOCTYPE svg PUBLIC "-//W3C//DTD SVG 20010904//EN"
 "http://www.w3.org/TR/2001/REC-SVG-20010904/DTD/svg10.dtd">
<svg version="1.0" xmlns="http://www.w3.org/2000/svg"
 width="300.000000pt" height="300.000000pt" viewBox="0 0 300.000000 300.000000"
 preserveAspectRatio="xMidYMid meet">
<metadata>
Created by potrace 1.11, written by Peter Selinger 2001-2013
</metadata>
<g transform="translate(0.000000,300.000000) scale(0.100000,-0.100000)"
fill="#000000" stroke="none">
<path d="M0 1500 l0 -1500 1500 0 1500 0 0 1500 0 1500 -1500 0 -1500 0 0
-1500z m1291 506 c125 -296 230 -540 231 -542 2 -2 108 241 234 539 l231 542
337 3 336 2 0 -1020 0 -1020 -250 0 -250 0 -2 740 -3 740 -231 -542 -231 -543
-168 0 -168 0 -231 543 -231 542 -3 -740 -2 -740 -250 0 -250 0 0 1020 0 1020
336 -2 336 -3 229 -539z"/>
</g>
</svg>
